<?xml version="1.0" encoding="UTF-8"?> <svg xmlns="http://www.w3.org/2000/svg" width="84.906" height="55.21" viewBox="0 0 84.906 55.21"><defs><style> .cls-1,.cls-2{fill:#fff}.cls-2{stroke:rgba(0,0,0,0)} </style></defs><g id="Group_246" data-name="Group 246" transform="translate(-145 -66.5)"><g id="Group_120" data-name="Group 120" transform="translate(145 97.9)"><path id="Path_29" d="M23.093 139.129a2.946 2.946 0 0 0-.848.138.6.6 0 0 0-.355.4 3.385 3.385 0 0 0-.1.952v8.581a3.385 3.385 0 0 0 .1.952.6.6 0 0 0 .355.4 2.947 2.947 0 0 0 .848.138v.346q-.935-.052-2.613-.052-1.853 0-2.734.052v-.346a2.993 2.993 0 0 0 .839-.138.6.6 0 0 0 .363-.4 3.415 3.415 0 0 0 .1-.952v-8.584a3.415 3.415 0 0 0-.1-.952.6.6 0 0 0-.363-.4 2.992 2.992 0 0 0-.839-.138v-.346q.883.052 2.734.052 1.678 0 2.613-.052z" class="cls-1" data-name="Path 29" transform="translate(-17.745 -138.783)"></path><path id="Path_30" d="M37.427 139.129a1.837 1.837 0 0 0-.84.294 1.08 1.08 0 0 0-.363.658 6.91 6.91 0 0 0-.1 1.333v9.657l-.415-.017-.468.017-7.511-9.519v6.648a7.737 7.737 0 0 0 .1 1.5 1.032 1.032 0 0 0 .45.692 2.81 2.81 0 0 0 1.125.3v.346q-.674-.052-1.869-.052-.952 0-1.506.052v-.346a1.833 1.833 0 0 0 .839-.294 1.077 1.077 0 0 0 .363-.658 6.91 6.91 0 0 0 .1-1.333v-7.788a3.385 3.385 0 0 0-.1-.952.6.6 0 0 0-.363-.4 2.992 2.992 0 0 0-.839-.138v-.346q.555.052 1.506.052.865 0 1.489-.052l6.7 8.255v-5.417a7.738 7.738 0 0 0-.1-1.5 1.023 1.023 0 0 0-.45-.692 2.8 2.8 0 0 0-1.125-.3v-.346q.676.052 1.869.052c.647 0 1.148-.017 1.506-.052z" class="cls-1" data-name="Path 30" transform="translate(-18.457 -138.783)"></path><path id="Path_31" d="M51.038 141.414q0 .813.052 1.315h-.4a5.834 5.834 0 0 0-1.038-2.752 2.429 2.429 0 0 0-1.938-.8h-.571a2.528 2.528 0 0 0-.779.087.519.519 0 0 0-.329.337 2.709 2.709 0 0 0-.086.8v4.361h.6a1.6 1.6 0 0 0 1.393-.675 4.23 4.23 0 0 0 .666-1.61h.4q-.052.727-.052 1.627v.831q0 .883.1 2.458h-.4q-.363-2.284-2.111-2.284h-.6v3.991a2.578 2.578 0 0 0 .146 1.012.761.761 0 0 0 .519.424 5.282 5.282 0 0 0 1.186.121v.381q-2.128-.052-3.167-.052-.866 0-2.181.035l-.554.017v-.346a3 3 0 0 0 .84-.138.6.6 0 0 0 .363-.4 3.415 3.415 0 0 0 .1-.952v-8.584a3.415 3.415 0 0 0-.1-.952.6.6 0 0 0-.363-.4 3 3 0 0 0-.84-.138v-.346q1.869.052 5.642.052 2.544 0 3.617-.052-.115 1.472-.115 2.632z" class="cls-1" data-name="Path 31" transform="translate(-20.52 -138.783)"></path><path id="Path_32" d="M60.272 139.129a2.958 2.958 0 0 0-.849.138.6.6 0 0 0-.355.4 3.422 3.422 0 0 0-.094.952v8.581a3.422 3.422 0 0 0 .094.952.6.6 0 0 0 .355.4 2.959 2.959 0 0 0 .849.138v.346q-.935-.052-2.614-.052-1.851 0-2.734.052v-.346a2.993 2.993 0 0 0 .839-.138.6.6 0 0 0 .363-.4 3.415 3.415 0 0 0 .1-.952v-8.584a3.415 3.415 0 0 0-.1-.952.6.6 0 0 0-.363-.4 2.992 2.992 0 0 0-.839-.138v-.346q.883.052 2.734.052 1.679 0 2.614-.052z" class="cls-1" data-name="Path 32" transform="translate(-21.978 -138.783)"></path><path id="Path_33" d="M74.6 139.129a1.833 1.833 0 0 0-.839.294 1.077 1.077 0 0 0-.363.658 6.91 6.91 0 0 0-.1 1.333v9.657l-.415-.017-.467.017-7.511-9.519v6.648a7.737 7.737 0 0 0 .1 1.5 1.032 1.032 0 0 0 .45.692 2.81 2.81 0 0 0 1.125.3v.346q-.675-.052-1.869-.052-.952 0-1.506.052v-.346a1.833 1.833 0 0 0 .839-.294 1.077 1.077 0 0 0 .363-.658 6.909 6.909 0 0 0 .1-1.333v-7.788a3.385 3.385 0 0 0-.1-.952.6.6 0 0 0-.363-.4 2.992 2.992 0 0 0-.839-.138v-.346q.553.052 1.506.052.865 0 1.488-.052l6.7 8.255v-5.417a7.737 7.737 0 0 0-.1-1.5 1.026 1.026 0 0 0-.45-.692 2.806 2.806 0 0 0-1.125-.3v-.346q.675.052 1.869.052.969 0 1.506-.052z" class="cls-1" data-name="Path 33" transform="translate(-22.426 -138.783)"></path><path id="Path_34" d="M84.427 139.129a2.946 2.946 0 0 0-.848.138.6.6 0 0 0-.355.4 3.386 3.386 0 0 0-.1.952v8.581a3.386 3.386 0 0 0 .1.952.6.6 0 0 0 .355.4 2.947 2.947 0 0 0 .848.138v.346q-.935-.052-2.613-.052-1.853 0-2.734.052v-.346a2.993 2.993 0 0 0 .839-.138.6.6 0 0 0 .363-.4 3.416 3.416 0 0 0 .1-.952v-8.584a3.416 3.416 0 0 0-.1-.952.6.6 0 0 0-.363-.4 2.992 2.992 0 0 0-.839-.138v-.346q.883.052 2.734.052 1.678 0 2.613-.052z" class="cls-1" data-name="Path 34" transform="translate(-24.489 -138.783)"></path><path id="Path_35" d="M97.709 141.725q0 .813.053 1.315h-.4a6.922 6.922 0 0 0-1.134-2.994 2.416 2.416 0 0 0-1.964-.865h-.4v9.882a2.761 2.761 0 0 0 .148 1.056.783.783 0 0 0 .518.441 4.827 4.827 0 0 0 1.186.13v.346q-2.182-.052-3.289-.052-1.09 0-3.166.052v-.346a4.84 4.84 0 0 0 1.186-.13.786.786 0 0 0 .519-.441 2.783 2.783 0 0 0 .146-1.056v-9.882h-.381a2.605 2.605 0 0 0-1.41.363 2.877 2.877 0 0 0-1 1.2 9.656 9.656 0 0 0-.71 2.293h-.4q.052-.5.053-1.315 0-1.3-.122-2.942 1.575.052 5.348.052t5.33-.052q-.11 1.647-.111 2.945z" class="cls-1" data-name="Path 35" transform="translate(-24.89 -138.783)"></path><path id="Path_36" d="M111.652 151.036q-1.178-.052-3.963-.052-3.774 0-5.642.052v-.346a2.993 2.993 0 0 0 .839-.138.6.6 0 0 0 .363-.4 3.415 3.415 0 0 0 .1-.952v-8.584a3.415 3.415 0 0 0-.1-.952.6.6 0 0 0-.363-.4 2.992 2.992 0 0 0-.839-.138v-.346q1.869.052 5.642.052 2.544 0 3.616-.052-.12 1.436-.12 2.561a10.152 10.152 0 0 0 .051 1.177h-.4a4.946 4.946 0 0 0-.935-2.6 2.438 2.438 0 0 0-1.9-.744h-.71a2.528 2.528 0 0 0-.779.087.518.518 0 0 0-.329.337 2.677 2.677 0 0 0-.087.8v4.302h.553a1.6 1.6 0 0 0 1.394-.675 4.217 4.217 0 0 0 .666-1.61h.4q-.052.727-.051 1.627v.831q0 .883.1 2.458h-.4q-.365-2.285-2.112-2.284h-.546v4.361a2.673 2.673 0 0 0 .087.8.518.518 0 0 0 .329.337 2.528 2.528 0 0 0 .779.087h.848a2.53 2.53 0 0 0 1.981-.839 5.586 5.586 0 0 0 1.065-2.847h.4q-.052.571-.053 1.454a23.348 23.348 0 0 0 .116 2.636z" class="cls-1" data-name="Path 36" transform="translate(-26.747 -138.783)"></path></g><g id="Group_119" data-name="Group 119" transform="translate(162.156 116.059)"><path id="Path_37" d="M123.978 138.574a2.416 2.416 0 0 1 .484.223c.056.031.106.057.15.077a.27.27 0 0 0 .111.031.119.119 0 0 0 .108-.081.923.923 0 0 0 .061-.257h.177q-.039.515-.038 1.751h-.177a2.518 2.518 0 0 0-.188-.791 1.536 1.536 0 0 0-.445-.611 1.034 1.034 0 0 0-.672-.234.877.877 0 0 0-.611.211.732.732 0 0 0-.234.572.922.922 0 0 0 .115.468 1.294 1.294 0 0 0 .323.365q.207.165.637.449l.246.169a7.581 7.581 0 0 1 .714.522 1.894 1.894 0 0 1 .426.518 1.388 1.388 0 0 1 .165.687 1.327 1.327 0 0 1-.253.826 1.543 1.543 0 0 1-.687.5 2.641 2.641 0 0 1-.964.169 2.8 2.8 0 0 1-.714-.077 2.352 2.352 0 0 1-.522-.207.553.553 0 0 0-.261-.108.118.118 0 0 0-.108.081.91.91 0 0 0-.061.257h-.177q.03-.484.031-2.073h.177a2.978 2.978 0 0 0 .384 1.394 1.109 1.109 0 0 0 1.014.534 1.036 1.036 0 0 0 .683-.223.781.781 0 0 0 .269-.637 1.064 1.064 0 0 0-.276-.737 4.4 4.4 0 0 0-.875-.691q-.461-.3-.737-.522a1.893 1.893 0 0 1-.453-.526 1.368 1.368 0 0 1-.177-.7 1.278 1.278 0 0 1 .234-.779 1.385 1.385 0 0 1 .626-.472 2.338 2.338 0 0 1 .86-.154 2.136 2.136 0 0 1 .635.076z" class="cls-1" data-name="Path 37" transform="translate(-121.582 -138.489)"></path><path id="Path_38" d="M138.23 144.22q-.523-.023-1.759-.023-1.674 0-2.5.023v-.154a1.331 1.331 0 0 0 .372-.061.267.267 0 0 0 .161-.177 1.516 1.516 0 0 0 .042-.422V139.6a1.516 1.516 0 0 0-.042-.422.267.267 0 0 0-.161-.177 1.331 1.331 0 0 0-.372-.061v-.154q.829.023 2.5.023 1.129 0 1.6-.023-.053.637-.053 1.137a4.507 4.507 0 0 0 .023.522h-.177a2.192 2.192 0 0 0-.414-1.152 1.082 1.082 0 0 0-.845-.33h-.315a1.126 1.126 0 0 0-.346.038.231.231 0 0 0-.146.15 1.2 1.2 0 0 0-.038.357v1.9h.245a.709.709 0 0 0 .619-.3 1.871 1.871 0 0 0 .3-.714h.177q-.023.323-.023.722v.369q0 .392.046 1.09h-.177q-.162-1.014-.937-1.014h-.245v1.939a1.2 1.2 0 0 0 .038.357.231.231 0 0 0 .146.15 1.126 1.126 0 0 0 .346.038h.376a1.123 1.123 0 0 0 .879-.372 2.479 2.479 0 0 0 .473-1.263h.177q-.023.253-.023.645a10.36 10.36 0 0 0 .053 1.165z" class="cls-1" data-name="Path 38" transform="translate(-128.852 -138.676)"></path><path id="Path_39" d="M150.334 138.937a1.525 1.525 0 0 0-.4.061.276.276 0 0 0-.173.177 1.387 1.387 0 0 0-.046.422v3.9a1.186 1.186 0 0 0 .038.357.232.232 0 0 0 .134.15.914.914 0 0 0 .311.038h.376a1.132 1.132 0 0 0 .9-.468 2.529 2.529 0 0 0 .5-1.244h.177q-.023.261-.023.676a11.156 11.156 0 0 0 .054 1.213q-.523-.023-1.759-.023-1.674 0-2.5.023v-.154a1.328 1.328 0 0 0 .372-.061.266.266 0 0 0 .161-.177 1.515 1.515 0 0 0 .042-.422V139.6a1.516 1.516 0 0 0-.042-.422.267.267 0 0 0-.161-.177 1.328 1.328 0 0 0-.372-.061v-.154q.392.023 1.213.023.784 0 1.206-.023z" class="cls-1" data-name="Path 39" transform="translate(-137.138 -138.676)"></path><path id="Path_40" d="M165.618 144.22q-.523-.023-1.759-.023-1.674 0-2.5.023v-.154a1.331 1.331 0 0 0 .373-.061.267.267 0 0 0 .161-.177 1.515 1.515 0 0 0 .042-.422V139.6a1.515 1.515 0 0 0-.042-.422.267.267 0 0 0-.161-.177 1.331 1.331 0 0 0-.373-.061v-.154q.829.023 2.5.023 1.129 0 1.6-.023-.054.637-.053 1.137a4.5 4.5 0 0 0 .023.522h-.177a2.2 2.2 0 0 0-.414-1.152 1.082 1.082 0 0 0-.845-.33h-.315a1.122 1.122 0 0 0-.346.038.23.23 0 0 0-.146.15 1.2 1.2 0 0 0-.038.357v1.9h.245a.708.708 0 0 0 .618-.3 1.866 1.866 0 0 0 .3-.714h.177q-.023.323-.023.722v.369q0 .392.046 1.09h-.177q-.161-1.014-.937-1.014h-.245v1.939a1.2 1.2 0 0 0 .038.357.23.23 0 0 0 .146.15 1.122 1.122 0 0 0 .346.038h.376a1.124 1.124 0 0 0 .879-.372 2.479 2.479 0 0 0 .473-1.263h.176q-.023.253-.023.645a10.456 10.456 0 0 0 .055 1.165z" class="cls-1" data-name="Path 40" transform="translate(-145.095 -138.676)"></path><path id="Path_41" d="M179 138.606a2.677 2.677 0 0 1 .63.369.248.248 0 0 0 .146.069q.153 0 .2-.461h.177q-.031.522-.031 1.858h-.177a3.833 3.833 0 0 0-.184-.868 1.243 1.243 0 0 0-.392-.522 1.3 1.3 0 0 0-.446-.28 1.484 1.484 0 0 0-.53-.1 1.221 1.221 0 0 0-1.152.756 4.212 4.212 0 0 0-.376 1.885 4.03 4.03 0 0 0 .392 1.874 1.252 1.252 0 0 0 1.167.753 1.478 1.478 0 0 0 .518-.1 1.142 1.142 0 0 0 .434-.28 1.124 1.124 0 0 0 .4-.538 4.4 4.4 0 0 0 .172-.945h.177q0 1.39.031 1.935h-.177a1.368 1.368 0 0 0-.066-.349q-.042-.1-.119-.1a.336.336 0 0 0-.161.061 3.231 3.231 0 0 1-.661.372 2.036 2.036 0 0 1-.76.127 2.948 2.948 0 0 1-1.424-.33 2.307 2.307 0 0 1-.948-.956 3.1 3.1 0 0 1-.338-1.494 3.157 3.157 0 0 1 .345-1.5 2.5 2.5 0 0 1 .964-1.014 2.742 2.742 0 0 1 1.409-.361 2.088 2.088 0 0 1 .78.139z" class="cls-1" data-name="Path 41" transform="translate(-153.51 -138.475)"></path><path id="Path_42" d="M195.3 140.089q0 .361.023.584h-.176a3.072 3.072 0 0 0-.5-1.329 1.072 1.072 0 0 0-.872-.384h-.177v4.385a1.225 1.225 0 0 0 .066.468.347.347 0 0 0 .23.2 2.142 2.142 0 0 0 .526.058v.154q-.968-.023-1.459-.023t-1.4.023v-.154a2.148 2.148 0 0 0 .526-.058.349.349 0 0 0 .23-.2 1.235 1.235 0 0 0 .065-.468v-4.385h-.182a1.156 1.156 0 0 0-.626.161 1.277 1.277 0 0 0-.442.534 4.284 4.284 0 0 0-.315 1.018h-.177q.023-.223.023-.584 0-.576-.054-1.305.7.023 2.373.023t2.365-.023q-.047.728-.047 1.305z" class="cls-1" data-name="Path 42" transform="translate(-162.291 -138.676)"></path><path id="Path_43" d="M207.883 138.937a1.31 1.31 0 0 0-.376.061.268.268 0 0 0-.157.177 1.519 1.519 0 0 0-.042.422v3.809a1.519 1.519 0 0 0 .042.422.268.268 0 0 0 .157.177 1.31 1.31 0 0 0 .376.061v.154q-.415-.023-1.16-.023-.822 0-1.213.023v-.154a1.33 1.33 0 0 0 .372-.061.267.267 0 0 0 .161-.177 1.515 1.515 0 0 0 .042-.422V139.6a1.516 1.516 0 0 0-.042-.422.267.267 0 0 0-.161-.177 1.331 1.331 0 0 0-.372-.061v-.154q.392.023 1.213.023.745 0 1.16-.023z" class="cls-1" data-name="Path 43" transform="translate(-170.93 -138.676)"></path><path id="Path_44" d="M217.947 138.805a2.31 2.31 0 0 1 .948.956 3.107 3.107 0 0 1 .338 1.494 3.153 3.153 0 0 1-.346 1.5 2.5 2.5 0 0 1-.964 1.014 2.743 2.743 0 0 1-1.409.361 2.948 2.948 0 0 1-1.424-.33 2.31 2.31 0 0 1-.948-.956 3.1 3.1 0 0 1-.338-1.494 3.157 3.157 0 0 1 .345-1.5 2.5 2.5 0 0 1 .964-1.014 2.742 2.742 0 0 1 1.409-.361 2.953 2.953 0 0 1 1.425.33zm-2.2.15a2.265 2.265 0 0 0-.5.956 5.2 5.2 0 0 0-.173 1.405 4.579 4.579 0 0 0 .2 1.405 2.277 2.277 0 0 0 .53.937 1.033 1.033 0 0 0 .741.33 1 1 0 0 0 .745-.342 2.255 2.255 0 0 0 .5-.956 5.2 5.2 0 0 0 .173-1.405 4.578 4.578 0 0 0-.2-1.405 2.273 2.273 0 0 0-.53-.937 1.034 1.034 0 0 0-.741-.33 1 1 0 0 0-.745.342z" class="cls-1" data-name="Path 44" transform="translate(-175.272 -138.475)"></path><path id="Path_45" d="M235.95 138.937a.813.813 0 0 0-.372.131.478.478 0 0 0-.161.292 3.067 3.067 0 0 0-.042.591v4.285l-.184-.008-.208.008-3.332-4.224v2.949a3.47 3.47 0 0 0 .046.664.458.458 0 0 0 .2.307 1.245 1.245 0 0 0 .5.134v.154q-.3-.023-.829-.023-.422 0-.668.023v-.154a.815.815 0 0 0 .373-.131.48.48 0 0 0 .161-.292 3.066 3.066 0 0 0 .042-.591V139.6a1.5 1.5 0 0 0-.042-.422.267.267 0 0 0-.161-.177 1.331 1.331 0 0 0-.373-.061v-.154q.246.023.668.023.384 0 .661-.023l2.972 3.663v-2.4a3.434 3.434 0 0 0-.046-.664.457.457 0 0 0-.2-.307 1.245 1.245 0 0 0-.5-.134v-.154q.3.023.829.023.43 0 .668-.023z" class="cls-1" data-name="Path 45" transform="translate(-185.342 -138.676)"></path></g><path id="Subtraction_2" d="M9.6 21.383h-.147a9.686 9.686 0 0 1-3.741-.79 9.832 9.832 0 0 1-3.059-2.136 9.861 9.861 0 0 1-2.646-6.569 13.1 13.1 0 0 1 .358-3.406 14.876 14.876 0 0 1 1.194-3.165 16.1 16.1 0 0 1 .862-1.469l.071-.1a11.369 11.369 0 0 1 1-1.256A9.2 9.2 0 0 1 4.8 1.311 6.166 6.166 0 0 1 6.438.426 7.4 7.4 0 0 1 8.972 0a8.9 8.9 0 0 1 1.058.064 12.555 12.555 0 0 1 3.318.868 18.365 18.365 0 0 1 2.944 1.533 19.429 19.429 0 0 1 2.6 2.011.585.585 0 0 1-.688.939l-.027-.015a28.589 28.589 0 0 0-5.532-2.517A11.777 11.777 0 0 0 9.1 2.267a6.844 6.844 0 0 0-1.96.268 7.1 7.1 0 0 1-.191.063 2.907 2.907 0 0 0-.42.159l-.3.125-.29.155a7.173 7.173 0 0 0-1.156.8 7.81 7.81 0 0 0-1.868 2.21 8.735 8.735 0 0 0-.989 5.661 7.246 7.246 0 0 0 2.7 4.6 8.017 8.017 0 0 0 2.286 1.212 6.334 6.334 0 0 0 1.956.3c.165 0 .335-.006.5-.017a9.584 9.584 0 0 0 2.575-.6A20.658 20.658 0 0 0 14.54 16a38.661 38.661 0 0 0 2.571-1.521 63.175 63.175 0 0 0 2.564-1.679l2.568-1.764 1.288-.9 1.31-.88c.937-.639 1.8-1.212 2.646-1.75.316-.208.684-.437 1.04-.658h.005l.015-.009.355-.221.331-.184c.384-.215.781-.438 1.2-.628A13.2 13.2 0 0 1 33.8 4.641a7.959 7.959 0 0 1 1.131-.079 10.523 10.523 0 0 1 2.628.356 6.476 6.476 0 0 1 1.735.813 6.809 6.809 0 0 1 1.362 1.277 8.887 8.887 0 0 1 1.511 3.157 12.416 12.416 0 0 1 .389 3.342 9.3 9.3 0 0 1-.6 3.36 6.881 6.881 0 0 1-2.156 2.757 6.034 6.034 0 0 1-3.387 1.2c-.1.005-.21.008-.316.008a7.558 7.558 0 0 1-3.145-.734 12.125 12.125 0 0 1-2.843-1.843 17.109 17.109 0 0 1-2.2-2.27 20.454 20.454 0 0 1-1.759-2.571l-.155.122-1.283.952-.267.2a58.286 58.286 0 0 1-2.36 1.669 67.562 67.562 0 0 1-2.757 1.761 36.333 36.333 0 0 1-2.962 1.563 19.873 19.873 0 0 1-3.266 1.2 13.435 13.435 0 0 1-3.5.502zM35.8 6.1c-.118 0-.237.005-.353.015a7.481 7.481 0 0 0-2.227.574A21.629 21.629 0 0 0 29.363 8.9c-1.2.828-2.353 1.708-3.531 2.613l-.9.7c-1.97 1.522-4.008 3.1-6.133 4.459a27.5 27.5 0 0 1-3.812 2.086 17.627 17.627 0 0 1-4.146 1.281 11.674 11.674 0 0 0 4.267-1 28.629 28.629 0 0 0 3.905-2.025c2.264-1.383 4.426-2.983 6.516-4.529l.672-.5c1.244-.921 2.371-1.747 3.548-2.532A21.124 21.124 0 0 1 33.5 7.382a6.131 6.131 0 0 1 2.236-.488 3.4 3.4 0 0 1 1.082.167c-.065 0-.134-.008-.2-.008a5.568 5.568 0 0 0-2.065.528 12.833 12.833 0 0 0-2.471 1.233c-.286.171-.569.374-.842.571-.113.081-.23.165-.346.246a37.77 37.77 0 0 1-.4.312c-.247.192-.5.39-.778.62-.841.7-1.672 1.366-2.47 1.988l-.411.323.62.6a38.969 38.969 0 0 0 3.783 3.375 14.409 14.409 0 0 0 2.494 1.544 6.7 6.7 0 0 0 2.657.694c.072 0 .145.006.217.006a4.431 4.431 0 0 0 2.437-.762 4.929 4.929 0 0 0 1.741-2 4.488 4.488 0 0 0 .392-1.352 8.672 8.672 0 0 0 .1-1.485 8.836 8.836 0 0 0-.5-2.907 6.129 6.129 0 0 0-.574-1.25 7.666 7.666 0 0 0-.69-1.154A5.292 5.292 0 0 0 37.778 6.6a4 4 0 0 0-1.978-.5zM21.575 8.113a.245.245 0 0 1-.163-.062L19.62 6.443a.331.331 0 0 1 .441-.493l.017.017L21.751 7.7a.243.243 0 0 1-.175.412z" class="cls-2" data-name="Subtraction 2" transform="translate(166.096 67)"></path></g></svg> 