<svg xmlns="http://www.w3.org/2000/svg" width="83.554" height="54.339" viewBox="0 0 83.554 54.339">
    <defs>
        <style>
            .cls-1{stroke:rgba(0,0,0,0)}
        </style>
    </defs>
    <g id="Group_577" data-name="Group 577" transform="translate(-119.818 -77.401)">
        <g id="Group_94" data-name="Group 94" transform="translate(119.818 108.309)">
            <g id="Group_120" data-name="Group 120">
                <path id="Path_29" d="M23.008 139.124a2.9 2.9 0 0 0-.835.136.592.592 0 0 0-.349.392 3.331 3.331 0 0 0-.094.937v8.447a3.331 3.331 0 0 0 .094.937.592.592 0 0 0 .349.392 2.9 2.9 0 0 0 .835.136v.341q-.92-.051-2.572-.051-1.823 0-2.691.051v-.342a2.946 2.946 0 0 0 .826-.136.591.591 0 0 0 .358-.392 3.361 3.361 0 0 0 .094-.937v-8.447a3.361 3.361 0 0 0-.094-.937.591.591 0 0 0-.358-.392 2.944 2.944 0 0 0-.826-.136v-.341q.869.051 2.691.051 1.651 0 2.572-.051z" data-name="Path 29" transform="translate(-17.745 -138.783)"/>
                <path id="Path_30" d="M37.245 139.124a1.807 1.807 0 0 0-.827.29 1.063 1.063 0 0 0-.358.647 6.8 6.8 0 0 0-.094 1.311v9.5l-.408-.017-.461.017-7.392-9.367v6.54a7.614 7.614 0 0 0 .1 1.473 1.015 1.015 0 0 0 .443.681 2.765 2.765 0 0 0 1.107.3v.341q-.663-.051-1.839-.051-.937 0-1.482.051v-.34a1.8 1.8 0 0 0 .826-.29 1.059 1.059 0 0 0 .358-.647 6.8 6.8 0 0 0 .094-1.311v-7.664a3.331 3.331 0 0 0-.094-.937.589.589 0 0 0-.358-.392 2.944 2.944 0 0 0-.826-.136v-.341q.546.051 1.482.051.851 0 1.465-.051l6.59 8.124v-5.331a7.614 7.614 0 0 0-.1-1.473 1.007 1.007 0 0 0-.443-.681 2.758 2.758 0 0 0-1.107-.3v-.341q.665.051 1.839.051c.636 0 1.129-.017 1.482-.051z" data-name="Path 30" transform="translate(-18.578 -138.783)"/>
                <path id="Path_31" d="M50.892 141.372q0 .8.051 1.294h-.392a5.741 5.741 0 0 0-1.022-2.708 2.391 2.391 0 0 0-1.907-.783h-.562a2.487 2.487 0 0 0-.766.085.511.511 0 0 0-.324.332 2.666 2.666 0 0 0-.084.792v4.292h.6a1.571 1.571 0 0 0 1.371-.664 4.163 4.163 0 0 0 .656-1.584h.387q-.051.715-.051 1.6v.817q0 .869.1 2.418h-.392q-.358-2.248-2.078-2.248h-.6v3.917a2.537 2.537 0 0 0 .144 1 .749.749 0 0 0 .511.417 5.2 5.2 0 0 0 1.167.119v.375q-2.094-.051-3.117-.051-.852 0-2.146.034l-.545.017v-.343a2.952 2.952 0 0 0 .827-.136.593.593 0 0 0 .358-.392 3.361 3.361 0 0 0 .094-.937v-8.447a3.361 3.361 0 0 0-.094-.937.593.593 0 0 0-.358-.392 2.951 2.951 0 0 0-.827-.136v-.341q1.839.051 5.552.051 2.5 0 3.56-.051-.113 1.449-.113 2.59z" data-name="Path 31" transform="translate(-20.861 -138.783)"/>
                <path id="Path_32" d="M60.187 139.124a2.911 2.911 0 0 0-.835.136.594.594 0 0 0-.349.392 3.368 3.368 0 0 0-.093.937v8.447a3.368 3.368 0 0 0 .093.937.594.594 0 0 0 .349.392 2.912 2.912 0 0 0 .835.136v.341q-.92-.051-2.572-.051-1.822 0-2.69.051v-.342a2.946 2.946 0 0 0 .826-.136.591.591 0 0 0 .358-.392 3.361 3.361 0 0 0 .094-.937v-8.447a3.361 3.361 0 0 0-.094-.937.591.591 0 0 0-.358-.392 2.944 2.944 0 0 0-.826-.136v-.341q.869.051 2.69.051 1.652 0 2.572-.051z" data-name="Path 32" transform="translate(-22.502 -138.783)"/>
                <path id="Path_33" d="M74.423 139.124a1.8 1.8 0 0 0-.826.29 1.06 1.06 0 0 0-.358.647 6.8 6.8 0 0 0-.094 1.311v9.5l-.409-.017-.46.017-7.391-9.367v6.54a7.613 7.613 0 0 0 .1 1.473 1.015 1.015 0 0 0 .443.681 2.765 2.765 0 0 0 1.107.3v.341q-.664-.051-1.839-.051-.937 0-1.482.051v-.34a1.8 1.8 0 0 0 .826-.29 1.059 1.059 0 0 0 .358-.647 6.8 6.8 0 0 0 .094-1.311v-7.664a3.331 3.331 0 0 0-.094-.937.589.589 0 0 0-.358-.392 2.944 2.944 0 0 0-.826-.136v-.341q.545.051 1.482.051.851 0 1.465-.051l6.591 8.124v-5.331a7.614 7.614 0 0 0-.1-1.473 1.01 1.01 0 0 0-.443-.681 2.762 2.762 0 0 0-1.107-.3v-.341q.664.051 1.839.051.953 0 1.482-.051z" data-name="Path 33" transform="translate(-23.075 -138.783)"/>
                <path id="Path_34" d="M84.342 139.124a2.9 2.9 0 0 0-.835.136.592.592 0 0 0-.349.392 3.332 3.332 0 0 0-.094.937v8.447a3.332 3.332 0 0 0 .094.937.592.592 0 0 0 .349.392 2.9 2.9 0 0 0 .835.136v.341q-.92-.051-2.572-.051-1.823 0-2.691.051v-.342a2.946 2.946 0 0 0 .826-.136.591.591 0 0 0 .358-.392 3.361 3.361 0 0 0 .094-.937v-8.447a3.361 3.361 0 0 0-.094-.937.591.591 0 0 0-.358-.392 2.944 2.944 0 0 0-.826-.136v-.341q.869.051 2.691.051 1.651 0 2.572-.051z" data-name="Path 34" transform="translate(-25.358 -138.783)"/>
                <path id="Path_35" d="M97.541 141.678q0 .8.052 1.294H97.2a6.812 6.812 0 0 0-1.116-2.946 2.377 2.377 0 0 0-1.933-.852h-.391v9.726a2.717 2.717 0 0 0 .146 1.039.77.77 0 0 0 .51.434 4.751 4.751 0 0 0 1.167.128v.341q-2.147-.051-3.237-.051-1.073 0-3.116.051v-.342a4.764 4.764 0 0 0 1.167-.128.773.773 0 0 0 .511-.434 2.738 2.738 0 0 0 .144-1.039v-9.725h-.375a2.564 2.564 0 0 0-1.388.358 2.831 2.831 0 0 0-.979 1.184 9.5 9.5 0 0 0-.7 2.257h-.39q.051-.493.052-1.294 0-1.277-.12-2.9 1.55.051 5.263.051t5.246-.051q-.119 1.621-.12 2.899z" data-name="Path 35" transform="translate(-25.881 -138.783)"/>
                <path id="Path_36" d="M111.5 150.841q-1.159-.051-3.9-.051-3.714 0-5.552.051v-.341a2.946 2.946 0 0 0 .826-.136.591.591 0 0 0 .358-.392 3.361 3.361 0 0 0 .094-.937v-8.447a3.361 3.361 0 0 0-.094-.937.591.591 0 0 0-.358-.392 2.944 2.944 0 0 0-.826-.136v-.341q1.839.051 5.552.051 2.5 0 3.559-.051-.118 1.413-.118 2.521a9.992 9.992 0 0 0 .05 1.158h-.391a4.867 4.867 0 0 0-.92-2.555 2.4 2.4 0 0 0-1.873-.732h-.7a2.487 2.487 0 0 0-.766.085.509.509 0 0 0-.324.332 2.634 2.634 0 0 0-.085.792v4.224h.544a1.573 1.573 0 0 0 1.372-.664 4.15 4.15 0 0 0 .655-1.584h.392q-.051.715-.05 1.6v.817q0 .869.1 2.418h-.392q-.359-2.248-2.079-2.248h-.544v4.292a2.631 2.631 0 0 0 .085.792.509.509 0 0 0 .324.332 2.488 2.488 0 0 0 .766.085h.835a2.49 2.49 0 0 0 1.949-.826 5.5 5.5 0 0 0 1.048-2.8h.392q-.051.562-.052 1.431a22.974 22.974 0 0 0 .123 2.589z" data-name="Path 36" transform="translate(-27.945 -138.783)"/>
            </g>
            <g id="Group_119" data-name="Group 119" transform="translate(16.883 17.869)">
                <path id="Path_37" d="M123.94 138.573a2.377 2.377 0 0 1 .476.219c.055.03.1.056.147.076a.266.266 0 0 0 .11.03.117.117 0 0 0 .106-.079.909.909 0 0 0 .06-.253h.174q-.038.507-.038 1.723h-.175a2.478 2.478 0 0 0-.185-.778 1.512 1.512 0 0 0-.438-.6 1.018 1.018 0 0 0-.661-.23.863.863 0 0 0-.6.208.72.72 0 0 0-.23.563.907.907 0 0 0 .113.461 1.274 1.274 0 0 0 .317.359q.2.163.627.442l.242.166a7.463 7.463 0 0 1 .7.514 1.864 1.864 0 0 1 .419.51 1.366 1.366 0 0 1 .162.676 1.305 1.305 0 0 1-.249.812 1.519 1.519 0 0 1-.676.495 2.6 2.6 0 0 1-.948.166 2.755 2.755 0 0 1-.7-.076 2.314 2.314 0 0 1-.514-.2.544.544 0 0 0-.257-.106.117.117 0 0 0-.106.079.9.9 0 0 0-.06.253h-.174q.03-.476.03-2.04h.174a2.93 2.93 0 0 0 .378 1.372 1.091 1.091 0 0 0 1 .525 1.02 1.02 0 0 0 .673-.219.769.769 0 0 0 .264-.627 1.047 1.047 0 0 0-.272-.725 4.328 4.328 0 0 0-.861-.68q-.453-.295-.725-.514a1.863 1.863 0 0 1-.446-.518 1.346 1.346 0 0 1-.174-.691 1.258 1.258 0 0 1 .23-.767 1.363 1.363 0 0 1 .616-.465 2.3 2.3 0 0 1 .846-.151 2.1 2.1 0 0 1 .625.07z" data-name="Path 37" transform="translate(-121.582 -138.489)"/>
                <path id="Path_38" d="M138.162 144.133q-.514-.023-1.731-.023-1.648 0-2.464.023v-.151a1.31 1.31 0 0 0 .367-.06.262.262 0 0 0 .159-.174 1.492 1.492 0 0 0 .042-.416v-3.748a1.492 1.492 0 0 0-.042-.416.262.262 0 0 0-.159-.174 1.31 1.31 0 0 0-.367-.06v-.151q.816.023 2.464.023 1.111 0 1.579-.023-.053.627-.053 1.118a4.439 4.439 0 0 0 .022.514h-.174a2.157 2.157 0 0 0-.408-1.134 1.065 1.065 0 0 0-.831-.325h-.31a1.108 1.108 0 0 0-.34.038.228.228 0 0 0-.144.147 1.183 1.183 0 0 0-.037.351v1.874h.241a.7.7 0 0 0 .609-.295 1.841 1.841 0 0 0 .291-.7h.174q-.023.317-.022.71v.363q0 .385.045 1.073h-.173q-.159-1-.922-1h-.241v1.9a1.181 1.181 0 0 0 .037.351.228.228 0 0 0 .144.147 1.108 1.108 0 0 0 .34.038h.37a1.1 1.1 0 0 0 .865-.367 2.439 2.439 0 0 0 .465-1.243h.174q-.023.249-.023.635a10.2 10.2 0 0 0 .053 1.155z" data-name="Path 38" transform="translate(-128.933 -138.677)"/>
                <path id="Path_39" d="M150.3 138.934a1.5 1.5 0 0 0-.4.06.272.272 0 0 0-.17.174 1.364 1.364 0 0 0-.045.416v3.839a1.167 1.167 0 0 0 .038.351.228.228 0 0 0 .132.147.9.9 0 0 0 .306.038h.37a1.114 1.114 0 0 0 .888-.461 2.489 2.489 0 0 0 .487-1.224h.174q-.023.257-.023.665a10.975 10.975 0 0 0 .053 1.194q-.514-.023-1.731-.023-1.647 0-2.464.023v-.151a1.308 1.308 0 0 0 .367-.06.262.262 0 0 0 .159-.174 1.491 1.491 0 0 0 .042-.416v-3.748a1.491 1.491 0 0 0-.042-.416.262.262 0 0 0-.159-.174 1.307 1.307 0 0 0-.367-.06v-.151q.385.023 1.194.023.771 0 1.187-.023z" data-name="Path 39" transform="translate(-137.31 -138.677)"/>
                <path id="Path_40" d="M165.55 144.133q-.514-.023-1.731-.023-1.647 0-2.464.023v-.151a1.311 1.311 0 0 0 .367-.06.263.263 0 0 0 .159-.174 1.491 1.491 0 0 0 .042-.416v-3.748a1.491 1.491 0 0 0-.042-.416.263.263 0 0 0-.159-.174 1.31 1.31 0 0 0-.367-.06v-.151q.816.023 2.464.023 1.111 0 1.579-.023-.053.627-.053 1.118a4.436 4.436 0 0 0 .022.514h-.174a2.16 2.16 0 0 0-.408-1.134 1.065 1.065 0 0 0-.831-.325h-.31a1.1 1.1 0 0 0-.34.038.227.227 0 0 0-.144.147 1.183 1.183 0 0 0-.037.351v1.874h.242a.7.7 0 0 0 .608-.295 1.837 1.837 0 0 0 .291-.7h.174q-.023.317-.023.71v.363q0 .385.045 1.073h-.174q-.159-1-.922-1h-.242v1.9a1.181 1.181 0 0 0 .037.351.227.227 0 0 0 .144.147 1.1 1.1 0 0 0 .34.038h.37a1.106 1.106 0 0 0 .865-.367 2.439 2.439 0 0 0 .465-1.243h.173q-.023.249-.023.635a10.289 10.289 0 0 0 .057 1.155z" data-name="Path 40" transform="translate(-145.354 -138.677)"/>
                <path id="Path_41" d="M178.948 138.6a2.635 2.635 0 0 1 .62.363.244.244 0 0 0 .144.068q.151 0 .2-.453h.174q-.031.514-.03 1.829h-.174a3.771 3.771 0 0 0-.181-.854 1.223 1.223 0 0 0-.385-.514 1.279 1.279 0 0 0-.439-.276 1.461 1.461 0 0 0-.521-.094 1.2 1.2 0 0 0-1.134.744 4.145 4.145 0 0 0-.37 1.855 3.966 3.966 0 0 0 .385 1.844 1.232 1.232 0 0 0 1.149.741 1.454 1.454 0 0 0 .51-.094 1.124 1.124 0 0 0 .427-.276 1.106 1.106 0 0 0 .39-.529 4.332 4.332 0 0 0 .17-.93h.174q0 1.368.03 1.9h-.174a1.346 1.346 0 0 0-.065-.344q-.042-.1-.117-.1a.331.331 0 0 0-.159.06 3.18 3.18 0 0 1-.65.367 2 2 0 0 1-.748.125 2.9 2.9 0 0 1-1.4-.325 2.27 2.27 0 0 1-.933-.941 3.05 3.05 0 0 1-.333-1.47 3.107 3.107 0 0 1 .34-1.474 2.462 2.462 0 0 1 .949-1 2.7 2.7 0 0 1 1.387-.355 2.055 2.055 0 0 1 .764.133z" data-name="Path 41" transform="translate(-153.86 -138.475)"/>
                <path id="Path_42" d="M195.225 140.068q0 .355.023.574h-.173a3.023 3.023 0 0 0-.5-1.307 1.055 1.055 0 0 0-.858-.378h-.174v4.315a1.206 1.206 0 0 0 .065.461.341.341 0 0 0 .226.193 2.109 2.109 0 0 0 .518.057v.151q-.953-.023-1.436-.023t-1.383.023v-.151a2.115 2.115 0 0 0 .518-.057.343.343 0 0 0 .227-.193 1.216 1.216 0 0 0 .064-.461v-4.315h-.166a1.137 1.137 0 0 0-.616.159 1.256 1.256 0 0 0-.435.525 4.216 4.216 0 0 0-.31 1h-.174q.023-.219.023-.574 0-.567-.053-1.285.688.023 2.335.023t2.328-.023q-.049.718-.049 1.286z" data-name="Path 42" transform="translate(-162.742 -138.677)"/>
                <path id="Path_43" d="M207.845 138.934a1.289 1.289 0 0 0-.37.06.264.264 0 0 0-.155.174 1.494 1.494 0 0 0-.041.416v3.748a1.494 1.494 0 0 0 .041.416.264.264 0 0 0 .155.174 1.29 1.29 0 0 0 .37.06v.151q-.408-.023-1.141-.023-.808 0-1.194.023v-.151a1.31 1.31 0 0 0 .367-.06.262.262 0 0 0 .159-.174 1.491 1.491 0 0 0 .042-.416v-3.748a1.491 1.491 0 0 0-.042-.416.262.262 0 0 0-.159-.174 1.309 1.309 0 0 0-.367-.06v-.151q.385.023 1.194.023.733 0 1.141-.023z" data-name="Path 43" transform="translate(-171.481 -138.677)"/>
                <path id="Path_44" d="M217.881 138.8a2.273 2.273 0 0 1 .933.941 3.057 3.057 0 0 1 .332 1.47 3.1 3.1 0 0 1-.34 1.474 2.462 2.462 0 0 1-.948 1 2.7 2.7 0 0 1-1.387.355 2.9 2.9 0 0 1-1.4-.325 2.273 2.273 0 0 1-.933-.941 3.054 3.054 0 0 1-.332-1.47 3.107 3.107 0 0 1 .34-1.474 2.462 2.462 0 0 1 .949-1 2.7 2.7 0 0 1 1.387-.355 2.906 2.906 0 0 1 1.399.325zm-2.165.147a2.229 2.229 0 0 0-.487.941 5.118 5.118 0 0 0-.17 1.383 4.506 4.506 0 0 0 .193 1.383 2.24 2.24 0 0 0 .521.922 1.017 1.017 0 0 0 .729.325.98.98 0 0 0 .733-.336 2.219 2.219 0 0 0 .487-.941 5.117 5.117 0 0 0 .17-1.383 4.505 4.505 0 0 0-.193-1.383 2.236 2.236 0 0 0-.521-.922 1.018 1.018 0 0 0-.729-.325.98.98 0 0 0-.733.336z" data-name="Path 44" transform="translate(-175.886 -138.475)"/>
                <path id="Path_45" d="M235.87 138.934a.8.8 0 0 0-.367.128.47.47 0 0 0-.159.287 3.016 3.016 0 0 0-.042.582v4.217l-.181-.008-.2.008-3.279-4.156v2.9a3.413 3.413 0 0 0 .045.654.451.451 0 0 0 .2.3 1.225 1.225 0 0 0 .491.132v.151q-.294-.023-.816-.023-.415 0-.657.023v-.151a.8.8 0 0 0 .367-.128.472.472 0 0 0 .159-.287 3.019 3.019 0 0 0 .042-.582v-3.4a1.479 1.479 0 0 0-.042-.416.262.262 0 0 0-.159-.174 1.31 1.31 0 0 0-.367-.06v-.151q.242.023.657.023.378 0 .65-.023l2.925 3.6v-2.365a3.38 3.38 0 0 0-.045-.654.449.449 0 0 0-.2-.3 1.225 1.225 0 0 0-.491-.132v-.151q.295.023.816.023.423 0 .657-.023z" data-name="Path 45" transform="translate(-186.067 -138.677)"/>
            </g>
        </g>
        <g id="Group_97" data-name="Group 97" transform="translate(140.578 77.9)">
            <path id="Subtraction_2" d="M9.442 21.043H9.3a9.531 9.531 0 0 1-3.682-.778 9.676 9.676 0 0 1-3.01-2.1A9.7 9.7 0 0 1 .007 11.7a12.894 12.894 0 0 1 .352-3.353 14.639 14.639 0 0 1 1.175-3.115 15.838 15.838 0 0 1 .849-1.445l.07-.1a11.188 11.188 0 0 1 .985-1.236A9.052 9.052 0 0 1 4.727 1.29 6.068 6.068 0 0 1 6.336.419 7.282 7.282 0 0 1 8.829 0 8.753 8.753 0 0 1 9.87.063a12.355 12.355 0 0 1 3.265.855 18.073 18.073 0 0 1 2.9 1.509A19.12 19.12 0 0 1 18.6 4.406a.576.576 0 0 1-.677.924l-.031-.018a28.134 28.134 0 0 0-5.444-2.477 11.589 11.589 0 0 0-3.486-.6 6.735 6.735 0 0 0-1.933.265 5.108 5.108 0 0 1-.187.062 2.861 2.861 0 0 0-.413.157l-.3.123-.285.152a7.059 7.059 0 0 0-1.137.788 7.686 7.686 0 0 0-1.837 2.17 8.6 8.6 0 0 0-.97 5.57 7.13 7.13 0 0 0 2.658 4.532A7.889 7.889 0 0 0 6.8 17.241a6.233 6.233 0 0 0 1.925.3c.163 0 .33-.006.5-.017a9.431 9.431 0 0 0 2.534-.594 20.329 20.329 0 0 0 2.551-1.176c.9-.474 1.782-1.023 2.53-1.5a58.54 58.54 0 0 0 2.523-1.652l2.527-1.736 1.267-.886 1.289-.866c.922-.629 1.774-1.192 2.6-1.722.311-.205.673-.43 1.023-.648h.005l.014-.009.35-.218.326-.182c.378-.212.769-.431 1.178-.618a12.987 12.987 0 0 1 3.321-1.146 7.833 7.833 0 0 1 1.117-.081 10.356 10.356 0 0 1 2.586.35 6.373 6.373 0 0 1 1.707.8 6.7 6.7 0 0 1 1.341 1.26A8.745 8.745 0 0 1 41.5 10a12.219 12.219 0 0 1 .383 3.289 9.152 9.152 0 0 1-.592 3.306 6.771 6.771 0 0 1-2.13 2.713 5.938 5.938 0 0 1-3.333 1.181c-.1.005-.207.008-.311.008a7.438 7.438 0 0 1-3.1-.723 11.932 11.932 0 0 1-2.8-1.813 16.837 16.837 0 0 1-2.157-2.231 20.128 20.128 0 0 1-1.73-2.53l-.153.12-1.263.937-.263.193a57.82 57.82 0 0 1-2.322 1.642c-.917.617-1.83 1.2-2.713 1.733a36.449 36.449 0 0 1-2.914 1.539 19.557 19.557 0 0 1-3.214 1.185 13.221 13.221 0 0 1-3.446.494zM35.231 6c-.116 0-.233 0-.348.015a7.362 7.362 0 0 0-2.192.564 21.284 21.284 0 0 0-3.8 2.175c-1.178.815-2.315 1.681-3.474 2.571l-.891.687c-1.939 1.5-3.944 3.047-6.035 4.388a27.061 27.061 0 0 1-3.751 2.053 17.346 17.346 0 0 1-4.08 1.261 11.488 11.488 0 0 0 4.2-.984 28.173 28.173 0 0 0 3.84-1.988c2.228-1.361 4.355-2.935 6.412-4.457l.661-.489C27 10.89 28.109 10.077 29.268 9.3a20.788 20.788 0 0 1 3.7-2.04 6.033 6.033 0 0 1 2.2-.48 3.343 3.343 0 0 1 1.065.164c-.064 0-.131-.007-.2-.007A5.479 5.479 0 0 0 34 7.46a12.629 12.629 0 0 0-2.431 1.214c-.282.169-.56.368-.829.561-.111.08-.226.163-.341.242l-.392.307c-.243.189-.494.384-.765.611-.828.685-1.645 1.344-2.43 1.957l-.4.318.61.591a38.349 38.349 0 0 0 3.723 3.321 14.179 14.179 0 0 0 2.454 1.52 6.6 6.6 0 0 0 2.615.683c.071 0 .142.006.213.006a4.36 4.36 0 0 0 2.4-.75 4.851 4.851 0 0 0 1.713-1.964 4.417 4.417 0 0 0 .385-1.33 8.534 8.534 0 0 0 .1-1.461 8.7 8.7 0 0 0-.488-2.861 6.031 6.031 0 0 0-.565-1.23 7.544 7.544 0 0 0-.679-1.136A5.208 5.208 0 0 0 37.176 6.5a3.934 3.934 0 0 0-1.945-.5zm-14 1.982a.241.241 0 0 1-.16-.061L19.308 6.34a.325.325 0 0 1 .434-.485l.017.016L21.4 7.578a.239.239 0 0 1-.172.406z" class="cls-1" data-name="Subtraction 2"/>
        </g>
    </g>
</svg>
