<?xml version="1.0" standalone="no"?>
<!DOCTYPE svg PUBLIC "-//W3C//DTD SVG 20010904//EN"
 "http://www.w3.org/TR/2001/REC-SVG-20010904/DTD/svg10.dtd">
<svg version="1.0" xmlns="http://www.w3.org/2000/svg"
 width="400.000000pt" height="400.000000pt" viewBox="0 0 400.000000 400.000000"
 preserveAspectRatio="xMidYMid meet">
<metadata>
Created by potrace 1.14, written by Peter Selinger 2001-2017
</metadata>
<g transform="translate(0.000000,400.000000) scale(0.100000,-0.100000)"
fill="#000000" stroke="none">
<path d="M1700 2653 c-54 -7 -71 -14 -105 -45 -20 -17 -50 -59 -68 -92 -27
-53 -31 -71 -31 -141 -1 -70 3 -86 27 -127 36 -61 85 -98 150 -113 96 -21 197
12 350 117 82 57 90 60 100 43 23 -42 92 -106 140 -130 77 -38 123 -33 188 20
48 39 66 129 43 217 -24 93 -83 140 -175 140 -63 -1 -115 -27 -290 -147 -201
-138 -230 -154 -311 -170 -33 -7 -88 16 -123 52 -84 87 -52 253 57 297 52 21
116 12 202 -28 43 -19 82 -33 87 -30 50 31 -156 148 -241 137z m650 -163 c0
-5 -2 -10 -4 -10 -3 0 -8 5 -11 10 -3 6 -1 10 4 10 6 0 11 -4 11 -10z m-33 -6
c-3 -3 -12 -4 -19 -1 -8 3 -5 6 6 6 11 1 17 -2 13 -5z m89 -19 c71 -71 76
-207 8 -251 -57 -38 -127 -15 -220 70 l-57 52 64 53 c35 28 85 59 112 69 26 9
47 20 47 24 0 16 21 7 46 -17z m-142 0 c-10 -8 -23 -15 -28 -15 -6 0 -1 7 10
15 10 8 23 15 28 15 6 0 1 -7 -10 -15z m-44 -19 c0 -2 -8 -10 -17 -17 -16 -13
-17 -12 -4 4 13 16 21 21 21 13z"/>
<path d="M1950 2502 c0 -14 48 -54 60 -50 7 2 2 14 -12 31 -23 26 -48 36 -48
19z"/>
<path d="M1013 1899 c-17 -7 -17 -8 0 -8 15 -1 17 -14 17 -131 0 -112 -2 -130
-17 -139 -14 -8 0 -10 52 -10 39 1 62 3 53 6 -21 5 -20 1 -22 152 -1 105 1
114 19 122 l20 8 -20 1 c-60 6 -85 5 -102 -1z"/>
<path d="M1205 1900 c-24 -4 -26 -7 -12 -12 15 -7 17 -22 17 -127 0 -95 -3
-123 -16 -135 -14 -15 -12 -16 28 -15 36 0 39 2 21 9 -22 9 -23 15 -23 111 l0
101 86 -111 c48 -61 93 -111 100 -111 10 0 13 16 11 60 -1 38 -6 59 -13 56 -6
-2 -42 36 -80 84 -38 49 -73 91 -79 93 -5 2 -23 1 -40 -3z"/>
<path d="M1401 1902 c-33 -3 -33 -4 -12 -18 12 -9 19 -19 16 -24 -3 -5 0 -12
7 -16 7 -4 10 -3 5 1 -4 5 0 19 9 33 18 28 19 28 -25 24z"/>
<path d="M1512 1898 c-16 -6 -16 -7 1 -7 9 -1 17 -7 18 -13 1 -20 1 -221 0
-240 -1 -9 -9 -19 -18 -21 -10 -3 16 -5 57 -5 54 -1 69 2 53 8 -20 8 -23 16
-23 70 0 53 2 60 20 60 11 0 26 -12 34 -27 15 -28 15 -27 16 31 l0 59 -21 -27
c-35 -45 -49 -34 -49 39 l0 65 34 0 c35 0 52 -14 73 -59 11 -24 12 -22 10 23
l-2 50 -93 0 c-51 1 -100 -2 -110 -6z"/>
<path d="M1795 1886 c19 -31 14 -254 -5 -266 -10 -7 6 -10 50 -10 49 1 61 3
48 11 -16 9 -18 26 -18 134 0 108 2 125 18 134 15 9 14 11 -8 11 -14 1 -41 3
-61 4 -35 2 -36 1 -24 -18z"/>
<path d="M1973 1899 c-17 -7 -17 -8 0 -8 15 -1 17 -14 17 -131 0 -112 -2 -130
-17 -139 -14 -8 -8 -10 27 -10 25 0 38 3 30 6 -25 10 -28 23 -28 122 0 76 2
93 11 80 80 -108 164 -209 174 -209 10 0 13 32 13 135 0 113 3 135 16 143 14
8 13 10 -8 14 -13 2 -33 1 -44 -3 -16 -7 -17 -8 -2 -8 23 -1 30 -31 26 -114
l-3 -68 -77 99 c-76 98 -91 108 -135 91z"/>
<path d="M2305 1899 c-16 -4 -22 -7 -12 -8 21 -1 19 9 21 -135 1 -89 -2 -122
-12 -132 -11 -12 -4 -14 50 -14 47 1 59 3 46 11 -15 8 -17 27 -17 134 1 106 3
127 17 135 14 8 14 10 2 11 -8 0 -26 1 -40 2 -14 1 -38 -1 -55 -4z"/>
<path d="M2471 1850 c1 -51 1 -53 11 -25 14 40 37 65 60 65 17 0 18 -10 18
-130 0 -126 -1 -131 -22 -140 -17 -6 0 -9 57 -8 44 0 70 3 58 5 -28 5 -25 -9
-27 146 -2 115 0 127 16 127 22 0 58 -38 58 -61 0 -10 3 -20 8 -23 4 -2 7 18
7 46 l0 51 -123 1 -122 1 1 -55z"/>
<path d="M2788 1898 c-16 -4 -18 -6 -5 -7 19 -1 19 -1 19 -165 0 -73 -3 -100
-13 -107 -9 -5 31 -9 99 -9 l112 0 0 53 0 52 -19 -41 c-20 -44 -35 -54 -82
-54 l-29 0 0 65 c0 58 2 65 20 65 11 0 26 -12 34 -27 15 -27 15 -26 16 37 l0
65 -20 -32 c-33 -55 -50 -44 -50 32 l0 65 39 0 c40 0 62 -20 74 -65 2 -11 5 3
6 30 l1 50 -89 0 c-50 0 -100 -3 -113 -7z"/>
<path d="M1406 1789 c3 -56 11 -59 12 -4 1 25 -2 45 -7 45 -4 0 -7 -18 -5 -41z"/>
<path d="M1429 1463 c-30 -8 -29 -41 2 -67 29 -25 39 -56 17 -56 -6 0 -9 -3
-5 -6 3 -3 15 -3 26 1 32 10 26 46 -11 76 -28 23 -30 29 -19 43 7 9 12 15 10
15 -2 -1 -11 -3 -20 -6z"/>
<path d="M1539 1467 c0 -1 -1 -32 -2 -70 -2 -58 0 -67 16 -67 14 0 17 10 17
64 0 48 -4 65 -15 70 -8 3 -15 4 -16 3z"/>
<path d="M1602 1450 c14 -22 24 -19 15 5 -4 8 -11 15 -17 15 -6 0 -6 -7 2 -20z"/>
<path d="M1665 1398 c0 -57 3 -68 17 -68 13 0 17 12 20 68 3 61 1 67 -17 67
-18 0 -20 -7 -20 -67z"/>
<path d="M1795 1398 c0 -58 3 -68 18 -68 14 0 17 10 17 64 0 43 4 66 13 69 6
2 -1 4 -18 3 l-30 -1 0 -67z"/>
<path d="M1866 1462 c-3 -5 1 -15 8 -21 11 -10 14 -9 12 3 -3 21 -13 29 -20
18z"/>
<path d="M1943 1444 c-20 -20 -24 -31 -19 -57 6 -29 29 -57 47 -57 4 0 2 11
-5 25 -11 21 -12 34 -7 77 1 4 8 14 17 22 9 9 11 16 4 16 -6 0 -22 -12 -37
-26z"/>
<path d="M2077 1464 c-4 -4 -7 -17 -7 -28 1 -19 1 -20 11 -3 11 19 8 43 -4 31z"/>
<path d="M2121 1461 c-8 -5 -12 -25 -10 -58 1 -27 -1 -54 -5 -61 -5 -8 1 -12
16 -12 22 0 23 3 20 67 -1 36 -3 68 -5 69 -1 2 -8 -1 -16 -5z"/>
<path d="M2164 1462 c-9 -5 -8 -11 2 -20 12 -11 14 -9 14 8 0 22 0 23 -16 12z"/>
<path d="M2230 1399 c0 -59 3 -69 18 -69 15 0 17 9 16 67 -2 53 -5 67 -18 69
-13 2 -16 -9 -16 -67z"/>
<path d="M2335 1445 c-30 -29 -32 -68 -5 -95 27 -27 44 -25 25 3 -17 26 -14
79 5 102 20 24 1 17 -25 -10z"/>
<path d="M2396 1445 c16 -24 16 -60 -1 -98 -7 -17 -6 -18 14 -5 42 26 40 96
-4 116 -25 12 -25 12 -9 -13z"/>
<path d="M2488 1448 c2 -10 15 -31 28 -46 12 -15 31 -38 42 -51 l19 -24 5 21
c5 16 -4 33 -28 59 -18 21 -34 41 -34 44 0 4 -8 9 -19 12 -14 3 -17 0 -13 -15z"/>
<path d="M2575 1460 c-3 -5 -1 -10 4 -10 6 0 11 5 11 10 0 6 -2 10 -4 10 -3 0
-8 -4 -11 -10z"/>
<path d="M1472 1446 c7 -8 15 -12 17 -11 5 6 -10 25 -20 25 -5 0 -4 -6 3 -14z"/>
<path d="M2016 1445 c4 -8 8 -15 10 -15 2 0 4 7 4 15 0 8 -4 15 -10 15 -5 0
-7 -7 -4 -15z"/>
<path d="M1847 1405 c-4 -8 -2 -17 3 -20 6 -4 10 3 10 14 0 25 -6 27 -13 6z"/>
<path d="M1580 1401 c0 -6 5 -13 10 -16 6 -3 10 1 10 9 0 9 -4 16 -10 16 -5 0
-10 -4 -10 -9z"/>
<path d="M1607 1350 c-13 -16 -14 -20 -3 -20 8 0 17 7 20 16 9 25 2 26 -17 4z"/>
<path d="M1740 1351 c-7 -15 -7 -21 0 -21 12 0 25 28 17 36 -3 3 -10 -4 -17
-15z"/>
<path d="M1868 1349 c-17 -18 -17 -19 0 -19 11 0 18 8 19 20 2 24 3 24 -19 -1z"/>
<path d="M2021 1354 c0 -11 3 -14 6 -6 3 7 2 16 -1 19 -3 4 -6 -2 -5 -13z"/>
<path d="M1406 1351 c-3 -5 1 -11 9 -14 9 -4 12 -1 8 9 -6 16 -10 17 -17 5z"/>
<path d="M2490 1345 c0 -8 4 -15 10 -15 5 0 7 7 4 15 -4 8 -8 15 -10 15 -2 0
-4 -7 -4 -15z"/>
</g>
</svg>
