<svg width="694" height="642" viewBox="0 0 694 642" fill="none" xmlns="http://www.w3.org/2000/svg">
<rect width="694" height="642" fill="white"/>
<path d="M512.429 257.357C504.787 240.238 494.597 225.056 479.109 214.051C472.384 209.262 469.531 209.975 465.149 217.006C453.329 203.25 441.203 189.596 429.791 175.636C421.537 165.548 413.59 155.155 408.495 142.927C405.336 135.183 401.871 133.757 394.637 138.24C381.492 146.29 370.284 156.48 361.113 169.013C347.764 187.15 338.696 207.122 335.639 229.641C335.231 231.577 333.601 231.475 332.072 231.883C327.997 233.004 324.023 234.227 320.049 235.653C316.278 236.978 314.75 239.933 315.973 243.703C317.195 247.677 320.558 249.103 324.023 247.677C335.027 242.888 348.783 242.888 357.954 244.009C359.075 244.314 360.196 244.722 361.317 244.926C376.194 247.881 389.542 253.893 400.751 264.286L400.649 264.388C399.018 265.305 396.98 265.814 395.452 265.203C391.274 263.573 387.096 264.388 382.919 264.49C379.454 264.592 376.092 265.509 375.175 269.585C374.257 273.864 376.703 275.902 380.167 277.838C401.26 289.658 411.144 308 412.061 331.843C412.469 342.033 409.819 351.611 406.661 361.088C402.483 368.017 398.713 375.251 392.497 380.652C374.359 396.446 352.961 401.031 330.238 396.446C303.236 390.943 284.996 374.436 276.845 347.637C275.316 342.542 276.437 338.467 279.698 334.493C284.792 328.175 291.212 323.997 298.752 321.348C307.719 318.902 316.89 317.068 326.264 317.374C328.302 317.476 330.238 316.661 332.072 315.642C340.326 311.26 346.949 304.943 351.84 296.995C355.203 291.594 354.184 288.334 348.783 285.175C348.07 284.767 347.357 284.258 346.542 283.952C326.774 275.596 309.349 263.98 294.88 248.084C294.065 247.167 293.963 246.454 293.759 245.435C291.823 234.838 291.721 224.241 294.269 213.643C294.982 210.688 295.186 207.835 292.638 205.696C289.989 203.352 286.932 203.963 284.079 205.288C276.233 209.058 268.897 213.542 262.171 219.044C257.892 222.508 253.714 226.177 249.434 229.743C248.008 227.909 248.11 225.973 247.906 224.139C246.989 216.395 246.785 208.549 246.989 200.805C247.193 193.977 242.913 191.328 236.595 194.079C235.678 194.487 234.761 194.895 233.844 195.506C214.79 208.345 199.811 224.852 188.704 244.926C187.685 246.454 186.666 247.983 185.749 249.613C171.993 275.902 167 304.127 167.51 333.576C168.019 346.822 169.955 359.763 173.623 372.5C184.73 411.017 206.128 442.91 238.124 466.652C278.577 496.61 324.226 508.022 374.257 500.686C397.999 497.221 420.111 489.273 440.49 476.638C465.862 461.659 485.834 441.484 500.915 416.214C513.957 395.223 522.007 372.398 524.657 347.841C525.064 344.275 525.574 340.81 525.777 337.244C527 309.63 523.74 282.831 512.429 257.357V257.357ZM350.821 230.762C347.051 230.456 348.681 227.909 349.089 226.279C352.655 208.345 360.196 192.041 371.099 177.368C373.035 174.719 374.156 171.356 378.435 168.809C371.404 192.653 372.423 215.172 382.919 237.793C371.812 233.411 361.419 231.577 350.821 230.762ZM386.587 197.238C386.791 182.056 390.968 167.892 399.018 154.136C404.521 162.899 409.819 171.153 415.831 178.999C428.466 195.608 443.139 210.485 456.386 226.584C464.436 236.468 471.161 247.167 477.682 258.172C484.713 269.992 485.325 282.424 483.898 295.466C483.592 298.319 482.981 301.172 482.573 303.924C478.192 321.857 469.633 337.549 456.997 351.713C459.443 321.857 451.291 296.18 428.263 276.412C423.881 267.852 417.258 261.025 410.634 254.198C395.044 238.404 386.281 219.655 386.587 197.238V197.238ZM417.767 366.08C430.606 342.339 426.428 306.165 408.495 284.767C407.374 283.443 406.457 282.118 405.54 280.691L406.151 280.08C420.315 284.054 429.383 294.04 436.007 306.471C446.502 326.035 445.381 346.313 439.777 366.896C438.86 368.832 437.943 370.768 436.109 372.194C425.409 380.244 414.099 387.071 401.566 392.064C400.852 392.37 400.037 392.472 397.796 393.083C407.17 384.829 413.793 376.372 417.767 366.08V366.08ZM288.563 312.075C279.29 315.54 272.565 322.163 265.84 331.334C265.84 326.748 265.738 323.59 265.84 320.533C266.145 313.196 264.515 311.464 257.484 310.955C246.479 310.343 237.309 305.962 229.87 297.708C226.711 294.142 228.648 292.919 231.704 292.002L243.932 289.047C256.873 287.722 269.202 290.168 281.022 295.67C294.065 301.682 307.923 303.72 322.188 303.109C323.717 303.007 325.245 303.109 326.876 303.618C313.731 305.146 300.383 305.248 288.563 312.075V312.075ZM279.494 222.712V237.691C279.494 239.525 278.781 240.035 277.048 239.627C272.157 238.506 267.164 237.487 261.254 236.163C267.266 231.272 272.463 226.686 279.494 222.712ZM184.221 340.403C180.247 326.647 180.858 312.891 182.998 298.829C185.647 281.914 191.557 266.528 199.199 251.447C199.098 251.243 198.894 250.938 198.792 250.734C198.894 250.938 199.098 251.141 199.199 251.447C207.759 238.099 216.929 225.362 229.157 215.07C230.38 214.051 231.297 212.421 233.64 212.319C234.252 218.025 234.863 223.629 235.576 229.336C235.882 231.475 236.29 233.717 236.799 235.857C239.754 247.066 241.588 248.594 253.205 248.798C270.323 249.103 284.996 254.402 296.612 267.547C305.07 277.125 316.278 283.035 327.487 288.843C322.596 290.983 313.935 291.289 304.357 289.454C297.326 288.13 290.601 285.99 284.079 283.035C267.572 275.596 250.148 273.66 232.52 278.45C227.425 279.469 221.311 282.627 216.726 285.277C211.631 288.232 210.714 291.187 213.465 296.281C220.598 309.63 231.399 318.801 246.377 322.061C251.167 323.08 252.695 324.507 253.001 329.602C254.733 358.438 269.814 379.531 293.454 394.713C331.155 418.965 370.589 418.863 410.838 401.846C423.066 396.649 434.58 389.924 444.974 381.467C447.623 379.327 450.17 376.882 452.718 374.538C462.704 366.896 470.346 357.215 477.275 347.026C483.185 338.365 488.076 329.092 491.846 317.68C492.967 326.443 491.846 333.677 490.929 340.81C487.464 367.303 477.275 390.943 460.564 411.832L452.616 420.187C440.286 432.925 425.613 442.401 409.616 450.145C387.708 459.316 364.985 463.493 341.243 462.678C267.674 460.131 203.377 409.488 184.73 341.829C184.628 341.32 184.424 340.912 184.221 340.403V340.403ZM512.735 337.04C512.633 338.874 512.735 340.708 512.633 342.644C510.289 361.189 505.602 379.021 497.348 395.834C495.209 400.216 492.865 404.495 490.623 408.877C475.339 434.045 454.756 453.711 429.485 468.69C413.589 476.842 397.184 483.465 379.556 486.828C311.184 499.972 243.015 470.932 205.721 412.647C205.008 411.526 204.498 410.405 203.479 408.571C206.23 408.877 206.944 410.609 208.064 411.832C234.863 442.401 267.98 462.271 307.617 471.238C342.364 479.084 376.499 476.638 409.717 463.799C412.978 462.576 414.812 461.863 418.888 459.825C420.926 458.806 420.926 458.704 421.843 458.297C441.713 448.413 458.424 434.555 472.18 417.131C486.344 400.623 495.005 381.263 500.201 360.374C503.972 345.192 506.01 329.805 505.092 314.113C504.787 303.109 503.258 292.308 500.201 281.71C497.043 270.705 494.495 259.395 492.152 248.084C497.756 255.319 501.526 263.471 504.379 272.03C511.716 293.123 513.957 314.827 512.735 337.04V337.04Z" fill="url(#paint0_linear)"/>
<defs>
<linearGradient id="paint0_linear" x1="222.009" y1="453.114" x2="471.458" y2="203.665" gradientUnits="userSpaceOnUse">
<stop stop-color="#E71C7E"/>
<stop offset="1" stop-color="#FF8D42"/>
</linearGradient>
</defs>
</svg>
